<?xml version="1.0" encoding="UTF-8"?>
<svg xmlns="http://www.w3.org/2000/svg" xmlns:xlink="http://www.w3.org/1999/xlink" width="96px" height="96px" viewBox="0 0 96 43" version="1.1">
<defs>
<radialGradient id="radial0" gradientUnits="userSpaceOnUse" cx="0" cy="0" fx="0" fy="0" r="1" gradientTransform="matrix(20.027345,0,0,19.73528,23.452145,7.11005)">
<stop offset="0.003" style="stop-color:rgb(89.411765%,28.235294%,34.117647%);stop-opacity:1;"/>
<stop offset="0.469" style="stop-color:rgb(78.039216%,6.666667%,88.235294%);stop-opacity:1;"/>
<stop offset="1" style="stop-color:rgb(49.803922%,32.156863%,100%);stop-opacity:1;"/>
</radialGradient>
</defs>
<g id="surface1">
<path style=" stroke:none;fill-rule:nonzero;fill:url(#radial0);" d="M 24 23.648438 L 6.546875 23.648438 L 6.546875 6.449219 L 24 6.449219 L 15.132812 14.914062 Z M 24 23.648438 "/>
<path style=" stroke:none;fill-rule:nonzero;fill:rgb(0%,0%,0%);fill-opacity:1;" d="M 44.09375 6.449219 L 40.757812 6.449219 L 33.1875 14.339844 L 33.1875 6.449219 L 30.546875 6.449219 L 30.546875 23.632812 L 33.1875 23.632812 L 33.1875 15.324219 L 40.808594 23.632812 L 44.257812 23.632812 L 36.136719 14.734375 Z M 53.960938 11.636719 C 51.855469 10.496094 49.304688 10.496094 47.199219 11.636719 C 46.203125 12.191406 45.378906 13.003906 44.816406 13.984375 C 44.226562 15.015625 43.925781 16.179688 43.941406 17.359375 C 43.925781 18.539062 44.226562 19.699219 44.808594 20.730469 C 45.367188 21.714844 46.191406 22.527344 47.1875 23.085938 C 49.292969 24.222656 51.839844 24.222656 53.945312 23.085938 C 54.945312 22.527344 55.769531 21.714844 56.335938 20.730469 C 56.921875 19.703125 57.222656 18.539062 57.207031 17.359375 C 57.226562 16.179688 56.925781 15.015625 56.339844 13.984375 C 55.78125 13.003906 54.957031 12.191406 53.960938 11.636719 Z M 53.980469 19.585938 C 53.664062 20.210938 53.179688 20.738281 52.578125 21.109375 C 51.347656 21.835938 49.808594 21.835938 48.574219 21.109375 C 47.972656 20.738281 47.484375 20.214844 47.167969 19.585938 C 46.820312 18.894531 46.644531 18.132812 46.65625 17.359375 C 46.644531 16.585938 46.820312 15.820312 47.167969 15.125 C 47.804688 13.847656 49.132812 13.042969 50.582031 13.066406 C 51.285156 13.054688 51.980469 13.246094 52.578125 13.609375 C 53.179688 13.980469 53.664062 14.507812 53.980469 15.132812 C 54.332031 15.824219 54.507812 16.585938 54.492188 17.359375 C 54.507812 18.132812 54.332031 18.894531 53.980469 19.585938 Z M 62.683594 7.921875 L 60.230469 7.921875 L 60.230469 10.082031 C 60.253906 10.351562 60.167969 10.617188 59.992188 10.824219 C 59.777344 11.003906 59.5 11.089844 59.222656 11.0625 L 57.789062 11.0625 L 57.777344 13.273438 L 60.066406 13.273438 L 60.082031 20.625 C 60.082031 21.558594 60.367188 22.292969 60.941406 22.828125 C 61.511719 23.363281 62.300781 23.632812 63.304688 23.632812 L 65.671875 23.632812 L 65.671875 21.421875 L 63.742188 21.421875 C 63.457031 21.4375 63.179688 21.335938 62.96875 21.144531 C 62.769531 20.941406 62.667969 20.664062 62.683594 20.378906 L 62.671875 13.273438 L 65.671875 13.273438 L 65.683594 11.0625 L 62.683594 11.0625 Z M 67.765625 23.632812 L 70.371094 23.632812 L 70.371094 6.449219 L 67.765625 6.449219 Z M 73.363281 9.0625 L 76.089844 9.0625 L 76.089844 6.449219 L 73.363281 6.449219 Z M 73.425781 23.632812 L 76.039062 23.632812 L 76.039062 11.0625 L 73.425781 11.0625 Z M 89.683594 13.113281 C 89.320312 12.390625 88.753906 11.789062 88.050781 11.382812 C 86.546875 10.59375 84.75 10.566406 83.21875 11.304688 C 82.550781 11.664062 81.996094 12.203125 81.625 12.855469 L 81.625 11.0625 L 79.085938 11.0625 L 79.085938 23.632812 L 81.699219 23.632812 L 81.699219 16.5625 C 81.683594 15.910156 81.816406 15.261719 82.089844 14.664062 C 82.332031 14.152344 82.71875 13.722656 83.207031 13.425781 C 83.71875 13.128906 84.304688 12.976562 84.898438 12.992188 C 85.761719 12.992188 86.4375 13.253906 86.917969 13.777344 C 87.398438 14.300781 87.640625 15.03125 87.640625 15.972656 L 87.640625 23.632812 L 90.253906 23.632812 L 90.253906 15.703125 C 90.273438 14.808594 90.078125 13.921875 89.683594 13.113281 Z M 34.042969 32.222656 C 33.695312 32.015625 33.300781 31.914062 32.902344 31.917969 C 32.570312 31.914062 32.246094 31.988281 31.953125 32.140625 C 31.667969 32.289062 31.421875 32.503906 31.246094 32.773438 L 31.273438 30.363281 L 30.558594 30.363281 L 30.558594 32.023438 L 30.550781 32.023438 L 30.550781 36.535156 L 31.242188 36.535156 L 31.242188 35.78125 C 31.417969 36.046875 31.664062 36.265625 31.949219 36.417969 C 32.242188 36.566406 32.570312 36.644531 32.902344 36.640625 C 33.71875 36.648438 34.46875 36.207031 34.851562 35.496094 C 35.246094 34.730469 35.246094 33.828125 34.851562 33.0625 C 34.664062 32.714844 34.382812 32.421875 34.042969 32.222656 Z M 34.1875 35.1875 C 34.0625 35.441406 33.867188 35.652344 33.628906 35.804688 C 33.140625 36.097656 32.527344 36.097656 32.039062 35.804688 C 31.796875 35.652344 31.601562 35.441406 31.472656 35.1875 C 31.199219 34.613281 31.199219 33.945312 31.472656 33.371094 C 31.601562 33.117188 31.796875 32.90625 32.039062 32.753906 C 32.527344 32.460938 33.140625 32.460938 33.628906 32.753906 C 33.867188 32.90625 34.0625 33.117188 34.1875 33.371094 C 34.464844 33.945312 34.464844 34.613281 34.1875 35.1875 Z M 37.523438 35.21875 L 36.136719 32.023438 L 35.378906 32.023438 L 37.144531 36.050781 L 36.300781 37.945312 L 37.039062 37.945312 L 39.625 32.023438 L 38.867188 32.023438 Z M 43.972656 35.167969 C 43.992188 35.460938 43.816406 35.730469 43.539062 35.835938 C 43.449219 35.867188 43.351562 35.882812 43.257812 35.875 L 41.925781 35.875 L 41.925781 36.535156 L 43.347656 36.535156 C 43.597656 36.542969 43.84375 36.488281 44.066406 36.375 C 44.265625 36.277344 44.433594 36.121094 44.542969 35.925781 C 44.660156 35.71875 44.71875 35.484375 44.714844 35.25 L 44.714844 30.363281 L 43.972656 30.363281 Z M 49.222656 32.21875 C 48.886719 32.015625 48.5 31.910156 48.105469 31.917969 C 47.699219 31.910156 47.300781 32.019531 46.953125 32.226562 C 46.613281 32.429688 46.332031 32.722656 46.144531 33.074219 C 45.75 33.832031 45.75 34.726562 46.144531 35.484375 C 46.332031 35.835938 46.613281 36.128906 46.953125 36.332031 C 47.300781 36.539062 47.699219 36.648438 48.105469 36.640625 C 48.425781 36.644531 48.742188 36.585938 49.042969 36.46875 C 49.316406 36.367188 49.570312 36.207031 49.777344 36 C 49.964844 35.816406 50.09375 35.582031 50.148438 35.328125 L 49.433594 35.328125 C 49.378906 35.46875 49.289062 35.59375 49.167969 35.683594 C 49.03125 35.796875 48.875 35.878906 48.707031 35.933594 C 48.527344 35.996094 48.339844 36.023438 48.148438 36.023438 C 47.878906 36.027344 47.609375 35.960938 47.371094 35.828125 C 47.144531 35.695312 46.953125 35.503906 46.824219 35.273438 C 46.683594 35.019531 46.601562 34.738281 46.582031 34.445312 L 50.269531 34.445312 L 50.269531 34.277344 C 50.277344 33.855469 50.179688 33.4375 49.992188 33.058594 C 49.820312 32.714844 49.554688 32.421875 49.222656 32.21875 Z M 46.605469 33.875 C 46.648438 33.5 46.824219 33.152344 47.101562 32.886719 C 47.375 32.644531 47.734375 32.515625 48.105469 32.527344 C 48.460938 32.515625 48.808594 32.640625 49.066406 32.882812 C 49.332031 33.152344 49.492188 33.5 49.527344 33.875 Z M 52.144531 30.894531 L 51.476562 30.894531 L 51.476562 31.671875 C 51.484375 31.765625 51.457031 31.863281 51.394531 31.9375 C 51.316406 32 51.21875 32.03125 51.117188 32.023438 L 50.605469 32.023438 L 50.601562 32.648438 L 51.421875 32.648438 L 51.425781 35.558594 C 51.414062 35.824219 51.515625 36.085938 51.710938 36.277344 C 51.929688 36.460938 52.214844 36.554688 52.5 36.535156 L 53.214844 36.535156 L 53.214844 35.910156 L 52.546875 35.910156 C 52.378906 35.925781 52.222656 35.828125 52.164062 35.671875 C 52.144531 35.621094 52.136719 35.566406 52.144531 35.511719 L 52.140625 32.648438 L 53.214844 32.648438 L 53.222656 32.023438 L 52.144531 32.023438 Z M 57.625 33.332031 C 58.246094 33.171875 58.671875 32.605469 58.652344 31.972656 C 58.65625 31.679688 58.570312 31.390625 58.40625 31.144531 C 58.238281 30.898438 58 30.699219 57.726562 30.574219 C 57.417969 30.429688 57.078125 30.359375 56.738281 30.363281 L 54.253906 30.363281 L 54.253906 36.535156 L 56.792969 36.535156 C 57.152344 36.542969 57.507812 36.464844 57.835938 36.316406 C 58.125 36.179688 58.375 35.972656 58.554688 35.707031 C 58.730469 35.445312 58.820312 35.136719 58.8125 34.824219 C 58.824219 34.480469 58.710938 34.144531 58.492188 33.871094 C 58.273438 33.601562 57.964844 33.410156 57.625 33.332031 Z M 54.96875 31.019531 L 56.738281 31.019531 C 56.941406 31.015625 57.144531 31.058594 57.328125 31.144531 C 57.492188 31.226562 57.632812 31.351562 57.726562 31.507812 C 57.820312 31.671875 57.871094 31.855469 57.867188 32.042969 C 57.871094 32.234375 57.820312 32.421875 57.726562 32.585938 C 57.632812 32.742188 57.492188 32.867188 57.328125 32.949219 C 57.144531 33.039062 56.941406 33.085938 56.738281 33.082031 L 54.96875 33.082031 Z M 57.871094 35.363281 C 57.769531 35.53125 57.617188 35.664062 57.4375 35.746094 C 57.234375 35.839844 57.015625 35.886719 56.792969 35.882812 L 54.96875 35.882812 L 54.96875 33.714844 L 56.792969 33.714844 C 57.015625 33.710938 57.234375 33.757812 57.4375 33.851562 C 57.617188 33.933594 57.765625 34.066406 57.871094 34.234375 C 57.976562 34.402344 58.03125 34.597656 58.027344 34.792969 C 58.03125 34.996094 57.976562 35.191406 57.871094 35.363281 Z M 61.289062 32.207031 C 61.042969 32.367188 60.851562 32.59375 60.730469 32.859375 L 60.730469 32.023438 L 60.015625 32.023438 L 60.015625 36.535156 L 60.730469 36.535156 L 60.730469 34.101562 C 60.722656 33.839844 60.78125 33.578125 60.894531 33.339844 C 61 33.132812 61.164062 32.964844 61.367188 32.851562 C 61.585938 32.734375 61.835938 32.675781 62.085938 32.683594 L 62.25 32.683594 L 62.25 31.976562 L 62.113281 31.976562 C 61.820312 31.972656 61.535156 32.050781 61.289062 32.207031 Z M 65.617188 32.105469 C 65.339844 31.976562 65.035156 31.910156 64.726562 31.917969 C 64.417969 31.914062 64.109375 31.976562 63.828125 32.101562 C 63.566406 32.214844 63.339844 32.394531 63.167969 32.617188 C 63 32.832031 62.898438 33.089844 62.875 33.363281 L 63.574219 33.363281 C 63.589844 33.199219 63.648438 33.046875 63.75 32.917969 C 63.855469 32.785156 63.992188 32.679688 64.148438 32.617188 C 64.324219 32.542969 64.511719 32.503906 64.703125 32.507812 C 64.890625 32.503906 65.078125 32.542969 65.246094 32.617188 C 65.398438 32.683594 65.523438 32.792969 65.613281 32.929688 C 65.699219 33.070312 65.746094 33.234375 65.742188 33.402344 C 65.75 33.515625 65.71875 33.628906 65.65625 33.722656 C 65.597656 33.796875 65.511719 33.84375 65.417969 33.851562 L 64.082031 33.984375 C 63.824219 34.003906 63.578125 34.082031 63.351562 34.210938 C 63.148438 34.328125 62.972656 34.496094 62.851562 34.695312 C 62.730469 34.890625 62.667969 35.117188 62.667969 35.34375 C 62.664062 35.582031 62.734375 35.816406 62.871094 36.015625 C 63.011719 36.21875 63.203125 36.375 63.429688 36.476562 C 63.683594 36.589844 63.960938 36.644531 64.238281 36.640625 C 64.546875 36.644531 64.847656 36.578125 65.121094 36.445312 C 65.378906 36.320312 65.59375 36.128906 65.75 35.898438 L 65.75 36.535156 L 66.449219 36.535156 L 66.449219 33.40625 C 66.453125 33.132812 66.375 32.867188 66.230469 32.636719 C 66.078125 32.40625 65.867188 32.222656 65.617188 32.105469 Z M 65.742188 34.8125 C 65.746094 35.042969 65.683594 35.269531 65.566406 35.46875 C 65.453125 35.660156 65.285156 35.820312 65.085938 35.925781 C 64.875 36.039062 64.636719 36.09375 64.394531 36.089844 C 64.214844 36.09375 64.035156 36.058594 63.871094 35.992188 C 63.726562 35.933594 63.601562 35.835938 63.511719 35.714844 C 63.425781 35.59375 63.382812 35.453125 63.382812 35.304688 C 63.382812 35.171875 63.417969 35.039062 63.488281 34.921875 C 63.558594 34.804688 63.652344 34.703125 63.773438 34.632812 C 63.894531 34.554688 64.035156 34.507812 64.179688 34.496094 L 65.742188 34.335938 Z M 67.636719 31.203125 L 68.40625 31.203125 L 68.40625 30.363281 L 67.636719 30.363281 Z M 67.664062 36.535156 L 68.378906 36.535156 L 68.378906 32.023438 L 67.664062 32.023438 Z M 72.707031 32.132812 C 72.152344 31.847656 71.488281 31.84375 70.929688 32.121094 C 70.679688 32.261719 70.476562 32.464844 70.34375 32.714844 L 70.34375 32.023438 L 69.652344 32.023438 L 69.652344 36.535156 L 70.367188 36.535156 L 70.367188 33.976562 C 70.363281 33.707031 70.417969 33.445312 70.53125 33.203125 C 70.628906 32.992188 70.789062 32.816406 70.984375 32.695312 C 71.195312 32.574219 71.4375 32.511719 71.679688 32.515625 C 71.988281 32.5 72.285156 32.613281 72.5 32.832031 C 72.707031 33.082031 72.8125 33.398438 72.792969 33.71875 L 72.792969 36.535156 L 73.507812 36.535156 L 73.507812 33.6875 C 73.515625 33.363281 73.445312 33.042969 73.300781 32.753906 C 73.167969 32.496094 72.964844 32.277344 72.707031 32.132812 Z M 77.625 34.390625 C 77.359375 34.144531 77.019531 33.984375 76.65625 33.941406 L 75.871094 33.804688 C 75.691406 33.777344 75.527344 33.699219 75.394531 33.582031 C 75.28125 33.472656 75.21875 33.324219 75.222656 33.167969 C 75.21875 33.039062 75.265625 32.914062 75.347656 32.816406 C 75.4375 32.707031 75.554688 32.625 75.691406 32.578125 C 76.015625 32.464844 76.371094 32.464844 76.691406 32.585938 C 76.832031 32.640625 76.953125 32.730469 77.042969 32.847656 C 77.125 32.957031 77.171875 33.09375 77.171875 33.230469 L 77.886719 33.230469 C 77.886719 32.984375 77.808594 32.746094 77.667969 32.542969 C 77.519531 32.339844 77.3125 32.179688 77.074219 32.082031 C 76.789062 31.964844 76.480469 31.910156 76.171875 31.917969 C 75.875 31.910156 75.582031 31.964844 75.304688 32.074219 C 75.074219 32.164062 74.878906 32.316406 74.734375 32.519531 C 74.601562 32.714844 74.53125 32.949219 74.535156 33.1875 C 74.527344 33.5 74.652344 33.800781 74.875 34.019531 C 75.136719 34.257812 75.46875 34.410156 75.820312 34.457031 L 76.582031 34.582031 C 76.773438 34.609375 76.949219 34.691406 77.089844 34.824219 C 77.210938 34.941406 77.277344 35.105469 77.273438 35.273438 C 77.277344 35.421875 77.230469 35.570312 77.144531 35.691406 C 77.050781 35.816406 76.921875 35.910156 76.777344 35.96875 C 76.601562 36.035156 76.410156 36.066406 76.222656 36.0625 C 76.027344 36.066406 75.832031 36.03125 75.652344 35.960938 C 75.492188 35.898438 75.355469 35.796875 75.253906 35.667969 C 75.15625 35.542969 75.101562 35.394531 75.097656 35.238281 L 74.378906 35.238281 C 74.378906 35.5 74.460938 35.757812 74.613281 35.972656 C 74.78125 36.191406 75.003906 36.363281 75.261719 36.464844 C 75.574219 36.589844 75.910156 36.648438 76.246094 36.640625 C 76.558594 36.648438 76.867188 36.589844 77.15625 36.46875 C 77.398438 36.367188 77.605469 36.199219 77.753906 35.984375 C 77.894531 35.769531 77.96875 35.515625 77.964844 35.257812 C 77.976562 34.933594 77.851562 34.621094 77.625 34.390625 Z M 77.625 34.390625 "/>
</g>
</svg>
